<?xml version="1.0" encoding="utf-8"?>
<!-- Generator: Adobe Illustrator 22.0.0, SVG Export Plug-In . SVG Version: 6.00 Build 0)  -->
<svg version="1.1" id="Layer_1" xmlns="http://www.w3.org/2000/svg" xmlns:xlink="http://www.w3.org/1999/xlink" x="0px" y="0px"
	 viewBox="0 0 38.8 33.2" style="enable-background:new 0 0 38.8 33.2;" xml:space="preserve">
<style type="text/css">
	.st0{clip-path:url(#SVGID_2_);fill:none;stroke:#6D6E71;stroke-width:2;stroke-miterlimit:10;}
</style>
<g>
	<defs>
		<rect id="SVGID_1_" y="0" width="38.8" height="33.2"/>
	</defs>
	<clipPath id="SVGID_2_">
		<use xlink:href="#SVGID_1_"  style="overflow:visible;"/>
	</clipPath>
	<path class="st0" d="M1,20.8v-1.2c0.1-0.1,0.2-0.2,0.3-0.3C7.2,13.5,13.2,7.6,19.1,1.7c0.1-0.1,0.2-0.2,0.4-0.3
		c2.3,2.3,4.6,4.5,6.9,6.8V2.6h4.6c0,0.2,0,0.3,0,0.4c0,3.1,0,6.2,0,9.3c0,0.3,0.1,0.6,0.3,0.8c2.1,2.1,4.2,4.2,6.3,6.3
		c0.1,0.1,0.2,0.2,0.2,0.3c0,0.3,0,0.7,0,1.1h-4.6v11.3H21.7v-6.8h-4.6v6.8H5.6V20.8H1z"/>
</g>
</svg>
