<?xml version="1.0" encoding="utf-8"?>
<!-- Generator: Adobe Illustrator 22.0.0, SVG Export Plug-In . SVG Version: 6.00 Build 0)  -->
<svg version="1.1" id="Layer_1" xmlns="http://www.w3.org/2000/svg" xmlns:xlink="http://www.w3.org/1999/xlink" x="0px" y="0px"
	 viewBox="0 0 153.4 116.6" style="enable-background:new 0 0 153.4 116.6;" xml:space="preserve">
<style type="text/css">
	.st0{clip-path:url(#SVGID_2_);fill:none;stroke:#6D6E71;stroke-width:2.768;stroke-miterlimit:10;}
	
		.st1{clip-path:url(#SVGID_2_);fill:none;stroke:#6D6E71;stroke-width:2.768;stroke-linecap:round;stroke-linejoin:bevel;stroke-miterlimit:10;}
</style>
<g>
	<defs>
		<rect id="SVGID_1_" width="153.4" height="116.6"/>
	</defs>
	<clipPath id="SVGID_2_">
		<use xlink:href="#SVGID_1_"  style="overflow:visible;"/>
	</clipPath>
	<polygon class="st0" points="130.9,76.2 30.4,114.8 16.1,77.5 1.8,40.2 102.3,1.7 128.2,34.5 	"/>
	<path class="st1" d="M131.8,43.6l19.1-2c0,0,6.1-16.1-10.1-24.4c-16.2-8.3-32.7,23.3-32.7,23.3l4.7,2 M99.8,43.6
		c-1.4-3.7,0.4-7.8,4.1-9.2c3.7-1.4,7.8,0.4,9.2,4.1c1.4,3.7-0.4,7.8-4.1,9.2C105.3,49.1,101.2,47.3,99.8,43.6z"/>
</g>
</svg>
