<?xml version="1.0" encoding="utf-8"?>
<!-- Generator: Adobe Illustrator 22.0.0, SVG Export Plug-In . SVG Version: 6.00 Build 0)  -->
<svg version="1.1" id="Layer_1" xmlns="http://www.w3.org/2000/svg" xmlns:xlink="http://www.w3.org/1999/xlink" x="0px" y="0px"
	 viewBox="0 0 48.7 26.9" style="enable-background:new 0 0 48.7 26.9;" xml:space="preserve">
<style type="text/css">
	.st0{clip-path:url(#SVGID_2_);fill:#FFFFFF;}
	.st1{clip-path:url(#SVGID_2_);fill:none;stroke:#6D6E71;stroke-width:2;stroke-miterlimit:10;}
</style>
<g>
	<defs>
		<rect id="SVGID_1_" y="0" width="48.7" height="26.9"/>
	</defs>
	<clipPath id="SVGID_2_">
		<use xlink:href="#SVGID_1_"  style="overflow:visible;"/>
	</clipPath>
	<path class="st0" d="M45.4,13.5c0,1.1,1,2.7,2.3,2.9v9.5H1v-9.5c1.6,0,2.9-1.7,2.9-3c0-1.3-1.3-3-2.9-3V1h46.7v9.5
		C46.4,10.8,45.4,12.3,45.4,13.5"/>
	<path class="st1" d="M45.4,13.5c0,1.1,1,2.7,2.3,2.9v9.5H1v-9.5c1.6,0,2.9-1.7,2.9-3c0-1.3-1.3-3-2.9-3V1h46.7v9.5
		C46.4,10.8,45.4,12.3,45.4,13.5z"/>
</g>
</svg>
